# xmcd CD database file
#
# Track frame offsets:
#	150
#	12896
#	23397
#	32372
#	42399
#	53319
#	65615
#
# Disc length: 947 seconds
#
# Revision: 0
# Processed by: cddbd v1.4PL0 Copyright (c) Steve Scherf et al.
# Submitted via: CDex 1.51
#
DISCID=4303b107
DTITLE=JSwine - Da Blues
DYEAR=2002
DGENRE=Blues
TTITLE0=Theme for the Draftsman
TTITLE1=Walking Blues
TTITLE2=DARK
TTITLE3=C-Man
TTITLE4=Goin' Down the Road Feeling Bad
TTITLE5=Sweet Home Chicago
TTITLE6=Dead Strings Tell No Tales
EXTD=YEAR: 2002
EXTT0=
EXTT1=
EXTT2=
EXTT3=
EXTT4=
EXTT5=
EXTT6=
PLAYORDER=
